<svg version="1.1" xmlns="http://www.w3.org/2000/svg" viewBox="0 0 116.70394736842127 74.12473684210505" width="233.40789473684254" height="148.2494736842101">
  <!-- svg-source:excalidraw -->
  
  <defs>
    <style>
      @font-face {
        font-family: "Virgil";
        src: url("https://excalidraw.com/Virgil.woff2");
      }
      @font-face {
        font-family: "Cascadia";
        src: url("https://excalidraw.com/Cascadia.woff2");
      }
    </style>
  </defs>
  <g stroke-linecap="round"><g transform="translate(32.85771409637664 49.1935189782929) rotate(0 24.4530286029958 -12.471915392232575)" fill-rule="evenodd"><path d="M0 -6.92 L9.99 5.27 L16.25 8.78 L23.21 10.36 L31.16 9.79 L38.67 7.08 L44.5 1.99 L48.31 -4.85 L49.38 -13.63 L47.64 -22.19 L42.01 -28.2 L34.78 -32.39 L28 -34.8 L21.3 -35.29 L14.91 -33.46 L3.93 -26.28 L0.25 -21.26 L-0.43 -13.54 L0 -6.92" stroke="none" stroke-width="0" fill="#fab005" fill-rule="evenodd"></path><path d="M0 -6.92 C1.66 -4.89, 6.12 2.38, 9.99 5.27 C13.85 8.15, 18.43 10.06, 23.21 10.36 C27.99 10.67, 34.49 9.62, 38.67 7.08 C42.85 4.55, 46.82 0.03, 48.31 -4.85 C49.81 -9.73, 49.9 -17.6, 47.64 -22.19 C45.39 -26.78, 39.17 -30.21, 34.78 -32.39 C30.39 -34.57, 25.58 -35.66, 21.3 -35.29 C17.02 -34.92, 12.61 -32.49, 9.1 -30.15 C5.59 -27.81, 1.77 -25.13, 0.25 -21.26 C-1.26 -17.39, 0.04 -9.31, 0 -6.92 M0 -6.92 C1.66 -4.89, 6.12 2.38, 9.99 5.27 C13.85 8.15, 18.43 10.06, 23.21 10.36 C27.99 10.67, 34.49 9.62, 38.67 7.08 C42.85 4.55, 46.82 0.03, 48.31 -4.85 C49.81 -9.73, 49.9 -17.6, 47.64 -22.19 C45.39 -26.78, 39.17 -30.21, 34.78 -32.39 C30.39 -34.57, 25.58 -35.66, 21.3 -35.29 C17.02 -34.92, 12.61 -32.49, 9.1 -30.15 C5.59 -27.81, 1.77 -25.13, 0.25 -21.26 C-1.26 -17.39, 0.04 -9.31, 0 -6.92" stroke="#00000000" stroke-width="2" fill="none"></path></g></g><g stroke-linecap="round"><g transform="translate(85.22423767943155 45.57298790364831) rotate(0 9.977928773996382 -7.80602857850289)" fill-rule="evenodd"><path d="M0 0 L-1.49 -13.89 L-0.33 -18.67 L8.18 -30.05 L13.35 -33.9 L15.5 -34.14 L17.12 -32.78 L18.35 -29.1 L21.04 -7.35 L21.45 8.31 L20.25 17.64 L18.7 18.57 L16.36 17.6 L10.32 11.97 L0 0" stroke="none" stroke-width="0" fill="#fab005" fill-rule="evenodd"></path><path d="M0 0 C-0.05 -3.11, -3.18 -13.21, -0.33 -18.67 C2.53 -24.14, 13.69 -38.83, 17.12 -32.78 C20.55 -26.73, 23.1 12.17, 20.25 17.64 C17.4 23.1, 3.38 2.94, 0 0 M0 0 C-0.05 -3.11, -3.18 -13.21, -0.33 -18.67 C2.53 -24.14, 13.69 -38.83, 17.12 -32.78 C20.55 -26.73, 23.1 12.17, 20.25 17.64 C17.4 23.1, 3.38 2.94, 0 0" stroke="#00000000" stroke-width="2" fill="none"></path></g></g><g stroke-linecap="round"><g transform="translate(27.06848010931435 42.724210526315915) rotate(0 -8.017417765619257 -7.767105263157987)" fill-rule="evenodd"><path d="M0 0 L0.99 -15.16 L0.04 -20 L-6.61 -29.74 L-10.64 -32.61 L-13.58 -31.05 L-15.43 -21.83 L-17.05 7.58 L-16.11 16.32 L-14.87 17.21 L-13.01 16.33 L-8.21 11.12 L0 0" stroke="none" stroke-width="0" fill="#fab005" fill-rule="evenodd"></path><path d="M0 0 C0.01 -3.33, 2.31 -14.82, 0.04 -20 C-2.22 -25.18, -10.89 -37.11, -13.58 -31.05 C-16.27 -25, -18.37 11.14, -16.11 16.32 C-13.84 21.49, -2.68 2.72, 0 0 M0 0 C0.01 -3.33, 2.31 -14.82, 0.04 -20 C-2.22 -25.18, -10.89 -37.11, -13.58 -31.05 C-16.27 -25, -18.37 11.14, -16.11 16.32 C-13.84 21.49, -2.68 2.72, 0 0" stroke="#00000000" stroke-width="2" fill="none"></path></g></g></svg>